<svg width="309.333332657814" height="379.99999928474426" xmlns="http://www.w3.org/2000/svg" xmlns:se="http://svg-edit.googlecode.com" xmlns:xlink="http://www.w3.org/1999/xlink" xmlns:dc="http://purl.org/dc/elements/1.1/" xmlns:cc="http://creativecommons.org/ns#" xmlns:rdf="http://www.w3.org/1999/02/22-rdf-syntax-ns#" xmlns:inkscape="http://www.inkscape.org/namespaces/inkscape" style="">
                                    <title>my vector image</title>
                                    <!-- Created with Vector Paint - http://www.vectorpaint.yaks.com/ https://chrome.google.com/webstore/detail/hnbpdiengicdefcjecjbnjnoifekhgdo -->
                                    <rect id="backgroundrect" width="100%" height="100%" x="0" y="0" fill="#FFFFFF" stroke="none" style="" class=""/>
                                <g style="" class="currentLayer"><title>Layer 1</title><path fill="#ffbf51" fill-opacity="1" stroke="#000000" stroke-opacity="1" stroke-width="5" stroke-dasharray="none" stroke-linejoin="round" stroke-linecap="butt" stroke-dashoffset="" fill-rule="nonzero" opacity="1" marker-start="" marker-mid="" marker-end="" d="M52.833322525024414,171.8333282470703 C52.833322525024414,115.47931671142578 56.49833106994629,19.83323097229004 153.2343235015869,20.38262939453125 C249.97034645080566,20.93212890625 255.2772922515869,114.36832427978516 255.2772922515869,170.7223358154297 C255.2772922515869,227.0763397216797 207.54631996154785,301.43731689453125 151.4683322906494,301.43731689453125 C95.39133644104004,301.43731689453125 52.833322525024414,228.1873321533203 52.833322525024414,171.8333282470703 z" id="svg_1" class=""/><path fill="#3392b2" fill-opacity="1" stroke="#000000" stroke-opacity="1" style="color: rgb(147, 134, 113);" stroke-width="5" stroke-dasharray="none" stroke-linejoin="round" stroke-linecap="butt" stroke-dashoffset="" fill-rule="nonzero" opacity="1" marker-start="" marker-mid="" marker-end="" id="svg_2" d="M51.130136489868164,183.8657989501953 C28.612592697143555,188.18138122558594 6.329999923706055,182.36085510253906 5.65052604675293,146.7476348876953 C5.134382247924805,123.30668640136719 26.102521896362305,111.77985382080078 43.39253044128418,110.03766632080078 C46.68275260925293,100.02880859375 54.291208267211914,5.62883186340332 152.14063453674316,4.96226692199707 C249.9900608062744,4.29570198059082 262.6569309234619,100.63980102539062 265.0695285797119,110.0591812133789 C285.7531223297119,110.89777374267578 299.1513156890869,121.75773620605469 300.1886692047119,145.02687072753906 C300.6569309234619,182.12391662597656 281.1941623687744,183.0489044189453 256.1884250640869,181.62840270996094 C258.37696266174316,29.47857666015625 191.74143409729004,21.951644897460938 152.68259620666504,20.919349670410156 C120.83139991760254,21.901519775390625 50.314645767211914,21.95030975341797 51.130136489868164,183.8657989501953 z" class=""/><path fill="#938671" fill-opacity="1" stroke="#000000" stroke-opacity="1" style="color: rgb(147, 134, 113);" stroke-width="5" stroke-dasharray="none" stroke-linejoin="round" stroke-linecap="butt" stroke-dashoffset="" fill-rule="nonzero" opacity="1" marker-start="" marker-mid="" marker-end="" id="svg_3" d="M316.4801940917969,260.0054931640625 " class=""/><path fill="#938671" fill-opacity="1" stroke="#000000" stroke-opacity="1" style="color: rgb(147, 134, 113);" stroke-width="5" stroke-dasharray="none" stroke-linejoin="round" stroke-linecap="butt" stroke-dashoffset="" fill-rule="nonzero" opacity="1" marker-start="" marker-mid="" marker-end="" id="svg_9" d="M315.9307556152344,260.554931640625 " class=""/><path fill="#938671" fill-opacity="1" stroke="#000000" stroke-opacity="1" style="color: rgb(147, 134, 113);" stroke-width="5" stroke-dasharray="none" stroke-linejoin="round" stroke-linecap="butt" stroke-dashoffset="" fill-rule="nonzero" opacity="1" marker-start="" marker-mid="" marker-end="" id="svg_10" d="M52.71531105041504,172.1963348388672 C48.98832130432129,219.34632873535156 43.884321212768555,241.1283416748047 26.702314376831055,269.622314453125 C60.601327896118164,294.5293273925781 89.13431739807129,323.39630126953125 118.46033668518066,369.6903076171875 C149.39731788635254,361.66131591796875 181.00232887268066,360.2983093261719 209.2733097076416,360.935302734375 C232.33733558654785,324.3983154296875 248.06934547424316,307.1943054199219 277.80030250549316,284.6573181152344 C269.07532691955566,255.54830932617188 256.6522922515869,200.1703338623047 255.2603244781494,169.7283477783203 C253.77735328674316,263.64532470703125 67.13532447814941,273.5693054199219 52.71531105041504,172.1963348388672 z" class=""/><path fill="#938671" fill-opacity="1" stroke="#000000" stroke-opacity="1" style="color: rgb(147, 134, 113);" stroke-width="5" stroke-dasharray="none" stroke-linejoin="round" stroke-linecap="butt" stroke-dashoffset="" fill-rule="nonzero" opacity="1" marker-start="" marker-mid="" marker-end="" id="svg_12" d="M315.38128662109375,268.79669189453125 " class=""/><path fill="#938671" fill-opacity="1" stroke="#000000" stroke-opacity="1" style="color: rgb(147, 134, 113);" stroke-width="5" stroke-dasharray="none" stroke-linejoin="round" stroke-linecap="butt" stroke-dashoffset="" fill-rule="nonzero" opacity="1" marker-start="" marker-mid="" marker-end="" d="M152.55042457580566,204.46360778808594 C169.20179176330566,202.53465270996094 227.5054874420166,228.48887634277344 230.78142738342285,277.4827880859375 C206.10344886779785,280.8905334472656 162.5132541656494,245.83831787109375 153.2916965484619,220.01954650878906 C147.8587131500244,256.8092346191406 93.53882789611816,277.3023376464844 85.14374732971191,277.05596923828125 C81.19349098205566,240.5123748779297 121.68726539611816,207.67311096191406 152.55042457580566,204.46360778808594 z" class="" id="svg_26"/><path fill="#938671" fill-opacity="1" stroke="#000000" stroke-opacity="1" style="color: rgb(147, 134, 113);" stroke-width="5" stroke-dasharray="none" stroke-linejoin="round" stroke-linecap="butt" stroke-dashoffset="" fill-rule="nonzero" opacity="1" marker-start="" marker-mid="" marker-end="" id="svg_25" d="M378.9222106933594,294.01849365234375 " class=""/><path fill="#6d6d6d" fill-opacity="1" stroke="#000000" stroke-opacity="1" style="color: rgb(147, 134, 113);" stroke-width="6" stroke-dasharray="none" stroke-linejoin="miter" stroke-linecap="butt" stroke-dashoffset="" fill-rule="nonzero" opacity="1" marker-start="" marker-mid="" marker-end="" id="svg_27" d="M101.02585792541504,193.5946807861328 L113.52186012268066,193.37965393066406 L112.78086280822754,155.07566833496094 L139.0708408355713,118.9056396484375 L129.7438449859619,111.51166534423828 L106.51484107971191,143.3126678466797 L83.14286231994629,111.67566680908203 L74.41684913635254,119.63665771484375 L100.69184303283691,154.98765563964844 L101.02585792541504,193.5946807861328 z" class=""/><path fill="#6d6d6d" fill-opacity="1" stroke="#000000" stroke-opacity="1" style="color: rgb(147, 134, 113);" stroke-width="6" stroke-dasharray="none" stroke-linejoin="miter" stroke-linecap="butt" stroke-dashoffset="" fill-rule="nonzero" opacity="1" marker-start="" marker-mid="" marker-end="" d="M193.06788063049316,190.90699768066406 L205.56389808654785,190.6919708251953 L204.82288551330566,152.3879852294922 L231.11284828186035,116.21795654296875 L221.7858829498291,108.82398223876953 L198.55689430236816,140.62498474121094 L175.1848850250244,108.98798370361328 L166.45887184143066,116.948974609375 L192.73389625549316,152.2999725341797 L193.06788063049316,190.90699768066406 z" class="" id="svg_11"/><path fill="" fill-opacity="1" stroke="none" stroke-opacity="1" style="color: rgb(147, 134, 113);" stroke-width="1" stroke-dasharray="none" stroke-linejoin="miter" stroke-linecap="butt" stroke-dashoffset="" fill-rule="nonzero" opacity="1" marker-start="" marker-mid="" marker-end="" id="svg_29" d="M366.3296203613281,243.64813232421875 " class=""/><path fill="#db9b34" fill-opacity="1" stroke="#000000" style="color: rgb(147, 134, 113);" stroke-width="5" stroke-dasharray="none" stroke-linejoin="round" stroke-linecap="butt" stroke-dashoffset="" fill-rule="nonzero" opacity="1" marker-start="" marker-mid="" marker-end="" id="svg_4" d="M128.0120029449463,186.89793395996094 L178.66114234924316,186.76881408691406 L170.5753574371338,198.42469787597656 L136.2936191558838,197.9945526123047 L128.0120029449463,186.89793395996094 z" class="" stroke-opacity="1"/><path fill="#ffbf51" fill-opacity="1" stroke="#000000" stroke-opacity="1" style="color: rgb(147, 134, 113);" stroke-width="5" stroke-dasharray="none" stroke-linejoin="round" stroke-linecap="butt" stroke-dashoffset="" fill-rule="nonzero" opacity="1" marker-start="" marker-mid="" marker-end="" id="svg_6" d="M417.9903564453125,272.91937255859375 " class=""/><path fill="#000000" fill-opacity="0.8" stroke="#000000" stroke-opacity="1" style="color: rgb(147, 134, 113);" stroke-width="8" stroke-dasharray="none" stroke-linejoin="round" stroke-linecap="butt" stroke-dashoffset="" fill-rule="nonzero" opacity="1" marker-start="" marker-mid="" marker-end="" id="svg_8" d="M65.36664772033691,123.50001525878906 L145.50000953674316,123.49998474121094 C149.7222080230713,134.8334197998047 159.27768898010254,135.50010681152344 162.1665744781494,123.50001525878906 L244.16660499572754,121.49998474121094 C245.2775058746338,149.50001525878906 251.0553684234619,180.8333282470703 202.16663551330566,182.1666717529297 C161.05564308166504,182.16676330566406 174.6110324859619,142.83326721191406 154.16663551330566,143.5000457763672 C133.05555152893066,143.4999237060547 148.61094093322754,182.83335876464844 108.16663551330566,184.16664123535156 C57.01145362854004,184.8333282470703 65.18900489807129,152.1667022705078 65.36664772033691,123.50001525878906 z" class=""/><path fill="#ffbf51" fill-opacity="1" stroke="#000000" stroke-opacity="1" style="color: rgb(147, 134, 113);" stroke-width="5" stroke-dasharray="none" stroke-linejoin="round" stroke-linecap="butt" stroke-dashoffset="" fill-rule="nonzero" opacity="1" marker-start="" marker-mid="" marker-end="" id="svg_15" d="M478.0333557128906,226.83334350585938 " class=""/></g><defs><filter id="f047" inkscape:label="Neon" inkscape:menu="Bevels" inkscape:menu-tooltip="Neon light effect" x="-0.25" y="-0.25" width="1.5" height="1.5" color-interpolation-filters="sRGB">
            <feGaussianBlur stdDeviation="1" result="result1"/>
            <feComposite in="result1" in2="result1" result="result4" operator="in"/>
            <feGaussianBlur stdDeviation="7" result="result6" in="result4"/>
            <feComposite operator="over" in="result6" in2="result4" result="result8"/>
            <feComposite operator="in" result="fbSourceGraphic" in="result6" in2="result8"/>
            <feSpecularLighting specularExponent="45" specularConstant="2" surfaceScale="2.5" lighting-color="#fff" result="result1" in="fbSourceGraphic">
                <fePointLight z="20000" y="-10000" x="-5000"/>
            </feSpecularLighting>
            <feComposite operator="in" result="result2" in="result1" in2="fbSourceGraphic"/>
            <feComposite k3="1.5" k2="1.2" operator="arithmetic" result="result4" in="fbSourceGraphic" in2="result2"/>
            <feComposite operator="over" in="result9" in2="result4" result="result9"/>
            <feBlend mode="screen" in2="result9"/>
        </filter></defs></svg>