<?xml version="1.0" encoding="utf-8"?>
<svg id="master-artboard" viewBox="0 0 1037.94189453125 1274.354736328125" version="1.1" xmlns="http://www.w3.org/2000/svg" x="0px" y="0px" style="enable-background:new 0 0 336 235.2;" width="1037.94189453125px" height="1274.354736328125px"><defs><filter id="f047" x="-0.25" y="-0.25" width="1.5" height="1.5" color-interpolation-filters="sRGB">
            <feGaussianBlur stdDeviation="1" result="result1"/>
            <feComposite in="result1" in2="result1" result="result4" operator="in"/>
            <feGaussianBlur stdDeviation="7" result="result6" in="result4"/>
            <feComposite operator="over" in="result6" in2="result4" result="result8"/>
            <feComposite operator="in" result="fbSourceGraphic" in="result6" in2="result8"/>
            <feSpecularLighting specularExponent="45" specularConstant="2" surfaceScale="2.5" lighting-color="#fff" result="result1" in="fbSourceGraphic">
                <fePointLight z="20000" y="-10000" x="-5000"/>
            </feSpecularLighting>
            <feComposite operator="in" result="result2" in="result1" in2="fbSourceGraphic"/>
            <feComposite k3="1.5" k2="1.2" operator="arithmetic" result="result4" in="fbSourceGraphic" in2="result2"/>
            <feComposite operator="over" in="result9" in2="result4" result="result9"/>
            <feBlend mode="screen" in2="result9"/>
        </filter><filter id="f217" x="0" y="0" width="1" height="1" color-interpolation-filters="sRGB">
            <feColorMatrix type="hueRotate" values="0"/>
            <feColorMatrix type="saturate" values="1"/>
            <feColorMatrix type="matrix" values="2 -1 0 0 0 0 2 -1 0 0 -1 0 2 0 0 0 0 0 1 0 "/>
        </filter><filter id="filter-1" x="-0.25" y="-0.25" width="1.5" height="1.5" color-interpolation-filters="sRGB">
            <feGaussianBlur stdDeviation="1" result="result1"/>
            <feComposite in="result1" in2="result1" result="result4" operator="in"/>
            <feGaussianBlur stdDeviation="7" result="result6" in="result4"/>
            <feComposite operator="over" in="result6" in2="result4" result="result8"/>
            <feComposite operator="in" result="fbSourceGraphic" in="result6" in2="result8"/>
            <feSpecularLighting specularExponent="45" specularConstant="2" surfaceScale="2.5" lighting-color="#fff" result="result1" in="fbSourceGraphic">
                <fePointLight z="20000" y="-10000" x="-5000"/>
            </feSpecularLighting>
            <feComposite operator="in" result="result2" in="result1" in2="fbSourceGraphic"/>
            <feComposite k3="1.5" k2="1.2" operator="arithmetic" result="result4" in="fbSourceGraphic" in2="result2"/>
            <feComposite operator="over" in="result9" in2="result4" result="result9"/>
            <feBlend mode="screen" in2="result9"/>
        </filter><style id="ee-google-fonts">@import url(https://fonts.googleapis.com/css?family=Pathway+Gothic+One:400|Abril+Fatface:400);</style></defs><rect id="ee-background" x="0" y="0" width="1037.94189453125" height="1274.354736328125" style="fill: white; fill-opacity: 0; pointer-events: none;"/><rect id="rect-1" x="0" y="0" width="900.2249755859375" height="1222.6060791015625" style="fill: white; fill-opacity: 0; pointer-events: none;" transform="matrix(0.9999999403953552, 0, 0, 0.9999999403953552, 70.57563781738281, 0.7643156049439312)"/><title>my vector image</title><path d="M 0 0 H 0 V 0 H 0 V 0 Z" id="backgroundrect" fill="#FFFFFF" stroke="none" style="" class="" transform="matrix(3.3850576877593994, 0, 0, 3.3850576877593994, 82.9711685180664, 121.06657028176278)"/><title>Layer 1</title><path fill="#6d6d6d" fill-opacity="1" stroke="#000000" stroke-opacity="1" stroke-width="5" stroke-dasharray="none" stroke-linejoin="miter" stroke-linecap="butt" stroke-dashoffset="" fill-rule="nonzero" opacity="1" marker-start="" marker-mid="" marker-end="" d="M179.10256144092864,148.30769541842002 L239.8717944391616,148.30769541842002 " id="svg_63" class="" transform="matrix(3.3850576877593994, 0, 0, 3.3850576877593994, -51.32390594482422, -102.84630203269035)"/><path fill="#ffbf51" fill-opacity="1" stroke="#000000" stroke-opacity="1" stroke-width="5" stroke-dasharray="none" stroke-linejoin="miter" stroke-linecap="butt" stroke-dashoffset="" fill-rule="nonzero" opacity="1" marker-start="" marker-mid="" marker-end="" d="M44.69230765104294,165.2307692170143 C44.69230765104294,150.86612833303641 53.64258389413686,139.2307692170143 64.69230765104294,139.2307692170143 C75.74203140794901,139.2307692170143 84.69230765104294,150.86612833303641 84.69230765104294,165.2307692170143 C84.69230765104294,179.5954101009922 75.74203140794901,191.2307692170143 64.69230765104294,191.2307692170143 C53.64258389413686,191.2307692170143 44.69230765104294,179.5954101009922 44.69230765104294,165.2307692170143 z" id="svg_53" class="" transform="matrix(3.3850576877593994, 0, 0, 3.3850576877593994, -51.32390594482422, -102.84630203269035)"/><path fill="#ffbf51" fill-opacity="1" stroke="#000000" stroke-opacity="1" stroke-width="5" stroke-dasharray="none" stroke-linejoin="miter" stroke-linecap="butt" stroke-dashoffset="" fill-rule="nonzero" opacity="1" marker-start="" marker-mid="" marker-end="" d="M248.53847515583038,162.15384584665298 C248.53847515583038,147.7892049626751 257.4887513989243,136.15384584665298 268.5384751558304,136.15384584665298 C279.58819891273646,136.15384584665298 288.5384751558304,147.7892049626751 288.5384751558304,162.15384584665298 C288.5384751558304,176.51848673063088 279.58819891273646,188.15384584665298 268.5384751558304,188.15384584665298 C257.4887513989243,188.15384584665298 248.53847515583038,176.51848673063088 248.53847515583038,162.15384584665298 z" class="" id="svg_35" transform="matrix(3.3850576877593994, 0, 0, 3.3850576877593994, -51.32390594482422, -102.84630203269035)"/><path fill="#ffbf51" fill-opacity="1" stroke="#000000" stroke-opacity="1" stroke-width="5" stroke-dasharray="none" stroke-linejoin="round" stroke-linecap="butt" stroke-dashoffset="" fill-rule="nonzero" opacity="1" marker-start="" marker-mid="" marker-end="" d="M67.16665649414062,188.16665649414062 C67.16665649414062,131.81265258789062 70.8316650390625,36.16656494140625 167.56765747070312,36.715965270996094 C264.30364990234375,37.265464782714844 269.61065673828125,130.70166015625 269.61065673828125,187.0556640625 C269.61065673828125,243.40966796875 221.87966918945312,317.7706604003906 165.80166625976562,317.7706604003906 C109.72467041015625,317.7706604003906 67.16665649414062,244.52066040039062 67.16665649414062,188.16665649414062 z" id="svg_1" class="" transform="matrix(3.3850576877593994, 0, 0, 3.3850576877593994, -51.32390594482422, -102.84630203269035)"/><path fill="#fff6d6" fill-opacity="1" stroke="none" stroke-opacity="1" stroke-width="5" stroke-dasharray="none" stroke-linejoin="round" stroke-linecap="butt" stroke-dashoffset="" fill-rule="nonzero" opacity="1" marker-start="" marker-mid="" marker-end="" d="M113.47290420532227,64.96002101898193 C133.75859451293945,61.451918601989746 139.83798599243164,79.69505214691162 119.65022659301758,82.10179805755615 C99.46247482299805,84.50854396820068 93.18722152709961,68.46812343597412 113.47290420532227,64.96002101898193 z" class="" transform="matrix(2.8563408851623535, -1.8165720701217651, 1.8165720701217651, 2.8563408851623535, -124.52239990234352, 142.05189132668477)" id="svg_55"/><path fill="#dba44c" fill-opacity="1" stroke="none" stroke-opacity="1" style="color: rgb(255, 191, 81);" stroke-width="5" stroke-dasharray="none" stroke-linejoin="round" stroke-linecap="butt" stroke-dashoffset="" fill-rule="nonzero" opacity="1" marker-start="" marker-mid="" marker-end="" id="svg_16" d="M168.192,38.9765 C200.657,64.7098 188.417,129.855 169.412,149.706 C192.31,187.505 138.78,264.271 173.487,272.507 C208.194,280.743 273.193,247.33 266.471,170.883 C266.808,139.259 266.585,39.0071 168.192,38.9765 z" class="" transform="matrix(3.3850576877593994, 0, 0, 3.3850576877593994, -51.32390594482422, -102.84630203269035)"/><path fill="#b78e50" fill-opacity="1" stroke="none" stroke-opacity="1" style="color: rgb(219, 164, 76);" stroke-width="5" stroke-dasharray="none" stroke-linejoin="round" stroke-linecap="butt" stroke-dashoffset="" fill-rule="nonzero" opacity="1" marker-start="" marker-mid="" marker-end="" id="svg_7" d="M173.29,237.196 L154.412,249.117 L154.827,269.941 C162.349,261.077 171.392,254.751 173.29,237.196 z" class="" transform="matrix(3.3850576877593994, 0, 0, 3.3850576877593994, -51.32390594482422, -102.84630203269035)"/><path fill="#938671" fill-opacity="1" stroke="#000000" stroke-opacity="1" style="color: rgb(147, 134, 113);" stroke-width="5" stroke-dasharray="none" stroke-linejoin="round" stroke-linecap="butt" stroke-dashoffset="" fill-rule="nonzero" opacity="1" marker-start="" marker-mid="" marker-end="" id="svg_10" d="M67.04864501953125,188.5296630859375 C63.3216552734375,235.67965698242188 58.2176513671875,257.461669921875 41.03564453125,285.9556579589844 C74.93466186523438,310.8626708984375 103.4676513671875,339.7296447753906 132.79367065429688,386.0236511230469 C163.73065185546875,377.9946594238281 195.33566284179688,376.63165283203125 223.60665893554688,377.2686462402344 C246.670654296875,340.7316589355469 262.40264892578125,323.52764892578125 292.1336364746094,300.99066162109375 C283.4086608886719,271.88165283203125 270.98565673828125,216.503662109375 269.5936584472656,186.06167602539062 C268.11065673828125,279.9786682128906 81.46865844726562,289.90264892578125 67.04864501953125,188.5296630859375 z" class="" transform="matrix(3.3850576877593994, 0, 0, 3.3850576877593994, -51.32390594482422, -102.84630203269035)"/><path fill="#938671" fill-opacity="1" stroke="#000000" stroke-opacity="1" style="color: rgb(147, 134, 113);" stroke-width="5" stroke-dasharray="none" stroke-linejoin="round" stroke-linecap="butt" stroke-dashoffset="" fill-rule="nonzero" opacity="1" marker-start="" marker-mid="" marker-end="" d="M67.16119569540024,187.57728576660156 C63.434209764003754,234.72727966308594 58.330205857753754,256.50927734375 41.148199021816254,285.0032653808594 C75.04721254110336,309.9102783203125 103.58020204305649,338.7772521972656 132.9062289595604,385.0712585449219 C163.84321016073227,377.0422668457031 195.4482211470604,375.67926025390625 223.7192172408104,376.3162536621094 C246.78321260213852,339.7792663574219 262.5151919722557,322.57525634765625 292.24617952108383,300.03826904296875 C283.52120393514633,270.92926025390625 271.0981997847557,215.55128479003906 269.7062014937401,185.1092987060547 C268.2231997847557,279.0262756347656 81.58120912313461,288.95025634765625 67.16119569540024,187.57728576660156 z" class="" id="svg_43" transform="matrix(3.3850576877593994, 0, 0, 3.3850576877593994, -51.32390594482422, -102.84630203269035)"/><path fill="#938671" fill-opacity="1" stroke="#000000" stroke-opacity="1" stroke-width="2" stroke-dasharray="none" stroke-linejoin="round" stroke-linecap="butt" stroke-dashoffset="" fill-rule="nonzero" opacity="1" marker-start="" marker-mid="" marker-end="" d="M89.64977633953094,232.983384847641 C87.65954196453094,253.42277693748474 81.49348056316376,271.88376021385193 69.35678470134735,286.97519087791443 " class="" id="svg_44" transform="matrix(3.3850576877593994, 0, 0, 3.3850576877593994, -51.32390594482422, -102.84630203269035)"/><path fill="#938671" fill-opacity="1" stroke="#000000" stroke-opacity="1" stroke-width="2" stroke-dasharray="none" stroke-linejoin="round" stroke-linecap="butt" stroke-dashoffset="" fill-rule="nonzero" opacity="1" marker-start="" marker-mid="" marker-end="" d="M169.826,262.358 C171.697,316.427 157.109,338.922 148.842,359.267" class="" id="svg_45" transform="matrix(3.3850576877593994, 0, 0, 3.3850576877593994, -51.32390594482422, -102.84630203269035)"/><path fill="#6d6250" fill-opacity="1" stroke="none" stroke-opacity="1" style="color: rgb(255, 191, 81);" stroke-width="5" stroke-dasharray="none" stroke-linejoin="round" stroke-linecap="butt" stroke-dashoffset="" fill-rule="nonzero" opacity="1" marker-start="" marker-mid="" marker-end="" id="svg_5" d="M173.84897431731224,262.1006164550781 C188.39597138762474,287.5166015625 186.8649807870388,336.8536071777344 179.84396943449974,374.818603515625 C196.6619778573513,373.0986022949219 210.04797944426537,373.5356140136719 221.7679806649685,374.0696105957031 C241.59697541594505,347.78759765625 253.68097504973412,326.3096008300781 289.1959896981716,299.6356201171875 C282.65598115324974,268.20159912109375 275.52698335051537,252.95262145996094 268.9869748055935,204.74362182617188 C257.1529904305935,238.505615234375 223.60097321867943,258.0796203613281 173.84897431731224,262.1006164550781 z" class="" transform="matrix(3.3850576877593994, 0, 0, 3.3850576877593994, -51.32390594482422, -102.84630203269035)"/><path fill="#ffbf51" fill-opacity="1" stroke="none" stroke-opacity="1" stroke-width="5" stroke-dasharray="none" stroke-linejoin="round" stroke-linecap="butt" stroke-dashoffset="" fill-rule="nonzero" opacity="1" marker-start="" marker-mid="" marker-end="" d="M213.90909385681152,210.4545384645462 C213.90909385681152,206.58713734149933 215.1673183441162,204.54543507099152 228.90909385681152,203.4545384645462 C242.65086936950684,202.3636418581009 243.90909385681152,206.58713734149933 243.90909385681152,210.4545384645462 C243.90909385681152,214.32193958759308 242.6509304046631,217.4545384645462 228.90909385681152,217.4545384645462 C215.16725730895996,217.4545384645462 213.90909385681152,214.32193958759308 213.90909385681152,210.4545384645462 z" id="svg_37" class="" transform="matrix(3.3850576877593994, 0, 0, 3.3850576877593994, -51.32390594482422, -102.84630203269035)"/><path fill="#4f4940" fill-opacity="1" stroke="none" stroke-opacity="1" style="color: rgb(79, 73, 64);" stroke-width="5" stroke-dasharray="none" stroke-linejoin="round" stroke-linecap="butt" stroke-dashoffset="" fill-rule="nonzero" opacity="1" marker-start="" marker-mid="" marker-end="" id="svg_14" d="M227.6719970703125,249.2468167245388 L241.53799438476562,241.31880769133568 C245.47000122070312,249.52380952239037 247.86300659179688,273.62680634856224 247.1790008544922,287.98581513762474 C244.7790069580078,273.790807813406 234.94400024414062,256.0058041512966 227.6719970703125,249.2468167245388 z" class="" transform="matrix(3.3850576877593994, 0, 0, 3.3850576877593994, -51.32390594482422, -102.84630203269035)"/><path fill="#6d6250" fill-opacity="1" stroke="none" stroke-opacity="1" style="color: rgb(79, 73, 64);" stroke-width="5" stroke-dasharray="none" stroke-linejoin="round" stroke-linecap="butt" stroke-dashoffset="" fill-rule="nonzero" opacity="1" marker-start="" marker-mid="" marker-end="" id="svg_22" d="M163.056396484375,262.3237973153591 C163.056396484375,262.3237973153591 154.08187866210938,275.40073212981224 131.79481506347656,282.087926954031 C147.92807006835938,271.55454072356224 150.2359161376953,269.5032406747341 156.15383911132812,261.8314877450466 L163.056396484375,262.3237973153591 z" class="" transform="matrix(3.3850576877593994, 0, 0, 3.3850576877593994, -51.32390594482422, -102.84630203269035)"/><path fill="#49463f" fill-opacity="1" stroke="#000000" stroke-opacity="1" stroke-width="2" stroke-dasharray="none" stroke-linejoin="round" stroke-linecap="butt" stroke-dashoffset="" fill-rule="nonzero" opacity="1" marker-start="" marker-mid="" marker-end="" d="M211.6432119487472,251.08487190918822 C215.46602446708494,268.4266962556867 226.24415407560082,297.5750871254204 238.95029905398405,310.2479763232477 " class="" id="svg_41" transform="matrix(3.3850576877593994, 0, 0, 3.3850576877593994, -51.32390594482422, -102.84630203269035)"/><path fill="#49463f" fill-opacity="1" stroke="#000000" stroke-opacity="1" stroke-width="3" stroke-dasharray="none" stroke-linejoin="round" stroke-linecap="butt" stroke-dashoffset="" fill-rule="nonzero" opacity="1" marker-start="" marker-mid="" marker-end="" d="M221.21283149719238,250.98731565475464 C225.86010932922363,271.0793719291687 238.96289253234863,304.85042905807495 254.409517288208,319.5331072807312 " class="" id="svg_49" transform="matrix(3.3850576877593994, 0, 0, 3.3850576877593994, -51.32390594482422, -102.84630203269035)"/><path fill="#49463f" fill-opacity="1" stroke="#000000" stroke-opacity="1" stroke-width="2" stroke-dasharray="none" stroke-linejoin="round" stroke-linecap="butt" stroke-dashoffset="" fill-rule="nonzero" opacity="1" marker-start="" marker-mid="" marker-end="" d="M240.72503995895386,239.28000736236572 C245.3723177909851,259.3720636367798 258.47508573532104,293.14312076568604 273.9217104911804,307.8257989883423 " class="" id="svg_50" transform="matrix(3.3850576877593994, 0, 0, 3.3850576877593994, -51.32390594482422, -102.84630203269035)"/><path fill="#938671" fill-opacity="1" stroke="#000000" stroke-opacity="1" stroke-width="3" stroke-dasharray="none" stroke-linejoin="round" stroke-linecap="butt" stroke-dashoffset="" fill-rule="nonzero" opacity="1" marker-start="" marker-mid="" marker-end="" d="M139.97013294696808,259.3037303686142 C136.55132496356964,278.79072988033295 130.18613636493683,300.1608775854111 115.86763203144073,318.5337108373642 " class="" id="svg_42" transform="matrix(3.3850576877593994, 0, 0, 3.3850576877593994, -51.32390594482422, -102.84630203269035)"/><path fill="#938671" fill-opacity="1" stroke="#000000" stroke-opacity="1" stroke-width="2" stroke-dasharray="none" stroke-linejoin="round" stroke-linecap="butt" stroke-dashoffset="" fill-rule="nonzero" opacity="1" marker-start="" marker-mid="" marker-end="" d="M134.516,257.486 C130.006,290.064 114.186,311.07 98.7767,327.261" class="" id="svg_38" transform="matrix(3.3850576877593994, 0, 0, 3.3850576877593994, -51.32390594482422, -102.84630203269035)"/><path fill="#938671" fill-opacity="1" stroke="#000000" stroke-opacity="1" stroke-width="2" stroke-dasharray="none" stroke-linejoin="round" stroke-linecap="butt" stroke-dashoffset="" fill-rule="nonzero" opacity="1" marker-start="" marker-mid="" marker-end="" d="M111.217,249.292 C104.697,277.267 100.666,295.249 84.3385,307.853" class="" id="svg_32" transform="matrix(3.3850576877593994, 0, 0, 3.3850576877593994, -51.32390594482422, -102.84630203269035)"/><path fill="#938671" fill-opacity="1" stroke="#000000" stroke-opacity="1" stroke-width="2" stroke-dasharray="none" stroke-linejoin="round" stroke-linecap="butt" stroke-dashoffset="" fill-rule="nonzero" opacity="1" marker-start="" marker-mid="" marker-end="" d="M81.89135926961899,223.7963982820511 C79.93598359823227,251.5761376619339 69.84424012899399,272.59177792072296 59.2522754073143,284.0019646883011 " id="svg_21" class="" transform="matrix(3.3850576877593994, 0, 0, 3.3850576877593994, -51.32390594482422, -102.84630203269035)"/><path fill="#938671" fill-opacity="1" stroke="#000000" stroke-opacity="1" stroke-width="2" stroke-dasharray="none" stroke-linejoin="round" stroke-linecap="butt" stroke-dashoffset="" fill-rule="nonzero" opacity="1" marker-start="" marker-mid="" marker-end="" d="M101.362,242.791 C99.423,256.366 96.9284,270.913 88.4788,279.652" class="" id="svg_46" transform="matrix(3.3850576877593994, 0, 0, 3.3850576877593994, -51.32390594482422, -102.84630203269035)"/><path fill="#49463f" fill-opacity="1" stroke="#000000" stroke-opacity="1" stroke-width="2" stroke-dasharray="none" stroke-linejoin="round" stroke-linecap="butt" stroke-dashoffset="" fill-rule="nonzero" opacity="1" marker-start="" marker-mid="" marker-end="" d="M260.7346912622452,218.721173286438 C263.4979053735733,238.59957599639893 271.29142343997955,272.01281452178955 280.4787708520889,286.5398225784302 " class="" id="svg_47" transform="matrix(3.3850576877593994, 0, 0, 3.3850576877593994, -51.32390594482422, -102.84630203269035)"/><path fill="#49463f" fill-opacity="1" stroke="#000000" stroke-opacity="1" stroke-width="2" stroke-dasharray="none" stroke-linejoin="round" stroke-linecap="butt" stroke-dashoffset="" fill-rule="nonzero" opacity="1" marker-start="" marker-mid="" marker-end="" d="M254.91662192344666,226.7205629348755 C256.81515097618103,240.41755390167236 262.1679494380951,263.43969440460205 268.4782521724701,273.4490633010864 " class="" id="svg_39" transform="matrix(3.3850576877593994, 0, 0, 3.3850576877593994, -51.32390594482422, -102.84630203269035)"/><path fill="none" stroke="#000000" stroke-opacity="1" stroke-width="3" stroke-dasharray="none" stroke-linejoin="round" stroke-linecap="butt" stroke-dashoffset="" fill-rule="nonzero" opacity="1" marker-start="" marker-mid="" marker-end="" d="M209.646,264.705 C218.313,275.094 224.348,301.751 194.668,343.997" class="" id="svg_48" transform="matrix(-2.618483543395996, 2.145265102386475, -2.145265102386475, -2.618483543395996, 1807.3756103515625, 1264.4600181577391)"/><path fill="#938671" fill-opacity="1" stroke="#000000" stroke-opacity="1" stroke-width="2" stroke-dasharray="none" stroke-linejoin="round" stroke-linecap="butt" stroke-dashoffset="" fill-rule="nonzero" opacity="1" marker-start="" marker-mid="" marker-end="" d="M165.487,261.743 C165.478,297.803 150.603,336.123 132.405,347.84" class="" id="svg_31" transform="matrix(3.3850576877593994, 0, 0, 3.3850576877593994, -51.32390594482422, -102.84630203269035)"/><path fill="#938671" fill-opacity="1" stroke="#000000" stroke-opacity="1" stroke-width="3" stroke-dasharray="none" stroke-linejoin="round" stroke-linecap="butt" stroke-dashoffset="" fill-rule="nonzero" opacity="1" marker-start="" marker-mid="" marker-end="" d="M77.59842103719711,218.0807843208313 C76.26522248983383,233.2317852973938 72.03164857625961,254.6004376411438 62.715963304042816,269.9653363227844 " id="svg_34" class="" transform="matrix(3.3850576877593994, 0, 0, 3.3850576877593994, -51.32390594482422, -102.84630203269035)"/><path fill="none" stroke="#000000" stroke-opacity="1" stroke-width="2" stroke-dasharray="none" stroke-linejoin="round" stroke-linecap="butt" stroke-dashoffset="" fill-rule="nonzero" opacity="1" marker-start="" marker-mid="" marker-end="" d="M174.12621489167213,261.7094421386719 C173.02082243561745,292.308349609375 176.8443240225315,323.6470642089844 190.35810270905495,336.6180419921875 " id="svg_33" class="" transform="matrix(3.3850576877593994, 0, 0, 3.3850576877593994, -51.32390594482422, -102.84630203269035)"/><path fill="none" stroke="#000000" stroke-opacity="1" stroke-width="2" stroke-dasharray="none" stroke-linejoin="miter" stroke-linecap="butt" stroke-dashoffset="" fill-rule="nonzero" opacity="1" marker-start="" marker-mid="" marker-end="" d="M159.238,243.752 C150.826,259.784 135.746,271.53 120.19,279.467" id="svg_52" class="" transform="matrix(3.3850576877593994, 0, 0, 3.3850576877593994, -51.32390594482422, -102.84630203269035)"/><path fill="#6d6250" stroke="#000000" stroke-opacity="1" stroke-width="2" stroke-dasharray="none" stroke-linejoin="miter" stroke-linecap="butt" stroke-dashoffset="" fill-rule="nonzero" opacity="1" marker-start="" marker-mid="" marker-end="" d="M182.572,244.229 C193.048,267.721 218.762,285.499 236.381,286.61" id="svg_54" class="" fill-opacity="1" transform="matrix(3.3850576877593994, 0, 0, 3.3850576877593994, -51.32390594482422, -102.84630203269035)"/><path fill="#6d6250" stroke="#000000" stroke-opacity="1" stroke-width="2" stroke-dasharray="none" stroke-linejoin="miter" stroke-linecap="butt" stroke-dashoffset="" fill-rule="nonzero" opacity="1" marker-start="" marker-mid="" marker-end="" d="M193.053,245.603 C206.446,268.581 219.545,278.103 232.572,282.323" id="svg_56" class="" fill-opacity="1" transform="matrix(3.3850576877593994, 0, 0, 3.3850576877593994, -51.32390594482422, -102.84630203269035)"/><path fill="#dadada" fill-opacity="1" stroke="#000000" stroke-opacity="1" stroke-width="5" stroke-dasharray="none" stroke-linejoin="miter" stroke-linecap="butt" stroke-dashoffset="" fill-rule="nonzero" opacity="1" marker-start="" marker-mid="" marker-end="" d="M195.73076951503754,156.5769221186638 C195.73076951503754,148.28962930098422 202.443476697358,141.5769221186638 210.73076951503754,141.5769221186638 C219.0180623327171,141.5769221186638 225.73076951503754,148.28962930098422 225.73076951503754,156.5769221186638 C225.73076951503754,164.86421493634336 219.0180623327171,171.5769221186638 210.73076951503754,171.5769221186638 C202.443476697358,171.5769221186638 195.73076951503754,164.86421493634336 195.73076951503754,156.5769221186638 z" class="" id="svg_11" transform="matrix(3.3850576877593994, 0, 0, 3.3850576877593994, -51.32390594482422, -102.84630203269035)"/><path fill="#dadada" fill-opacity="1" stroke="#000000" stroke-opacity="1" stroke-width="5" stroke-dasharray="none" stroke-linejoin="miter" stroke-linecap="butt" stroke-dashoffset="" fill-rule="nonzero" opacity="1" marker-start="" marker-mid="" marker-end="" d="M115,155.30769234895706 C115,147.0203995312775 121.71270718232044,140.30769234895706 130,140.30769234895706 C138.28729281767957,140.30769234895706 145,147.0203995312775 145,155.30769234895706 C145,163.59498516663663 138.28729281767957,170.30769234895706 130,170.30769234895706 C121.71270718232044,170.30769234895706 115,163.59498516663663 115,155.30769234895706 z" id="svg_2" class="" transform="matrix(3.3850576877593994, 0, 0, 3.3850576877593994, -51.32390594482422, -102.84630203269035)"/><path fill="#6d6250" fill-opacity="1" stroke="none" stroke-opacity="1" style="color: rgb(255, 191, 81);" stroke-width="5" stroke-dasharray="none" stroke-linejoin="round" stroke-linecap="butt" stroke-dashoffset="" fill-rule="nonzero" opacity="1" marker-start="" marker-mid="" marker-end="" id="svg_13" d="M235.68776118755343,263.0531589984894 " transform="matrix(3.3850576877593994, 0, 0, 3.3850576877593994, 82.9711685180664, 121.06657028176278)"/><path fill="#6d6250" fill-opacity="1" stroke="none" stroke-opacity="1" style="color: rgb(255, 191, 81);" stroke-width="5" stroke-dasharray="none" stroke-linejoin="round" stroke-linecap="butt" stroke-dashoffset="" fill-rule="nonzero" opacity="1" marker-start="" marker-mid="" marker-end="" id="svg_18" d="M191.42743909358978,155.44705563783646 " transform="matrix(3.3850576877593994, 0, 0, 3.3850576877593994, 82.9711685180664, 121.06657028176278)"/><path fill="#6d6250" fill-opacity="1" stroke="none" stroke-opacity="1" style="color: rgb(183, 142, 80);" stroke-width="5" stroke-dasharray="none" stroke-linejoin="round" stroke-linecap="butt" stroke-dashoffset="" fill-rule="nonzero" opacity="1" marker-start="" marker-mid="" marker-end="" id="svg_20" d="M144.85128450393677,244.5948588848114 " transform="matrix(3.3850576877593994, 0, 0, 3.3850576877593994, 82.9711685180664, 121.06657028176278)"/><path fill="#4f4940" fill-opacity="1" stroke="none" stroke-opacity="1" style="color: rgb(79, 73, 64);" stroke-width="5" stroke-dasharray="none" stroke-linejoin="round" stroke-linecap="butt" stroke-dashoffset="" fill-rule="nonzero" opacity="1" marker-start="" marker-mid="" marker-end="" id="svg_19" d="M238.1846123933792,255.87691569328308 " transform="matrix(3.3850576877593994, 0, 0, 3.3850576877593994, 82.9711685180664, 121.06657028176278)"/><path fill="#6d6250" fill-opacity="1" stroke="none" stroke-opacity="1" style="color: rgb(79, 73, 64);" stroke-width="5" stroke-dasharray="none" stroke-linejoin="round" stroke-linecap="butt" stroke-dashoffset="" fill-rule="nonzero" opacity="1" marker-start="" marker-mid="" marker-end="" id="svg_28" d="M155.87692499160767,267.1589663028717 " transform="matrix(3.3850576877593994, 0, 0, 3.3850576877593994, 82.9711685180664, 121.06657028176278)"/><path fill="#ffbf51" fill-opacity="1" stroke="none" stroke-opacity="1" stroke-width="5" stroke-dasharray="none" stroke-linejoin="miter" stroke-linecap="butt" stroke-dashoffset="" fill-rule="nonzero" opacity="1" marker-start="" marker-mid="" marker-end="" id="svg_66" d="M235.83331298828125,121.80000305175781 " style="color: rgb(0, 0, 0);" transform="matrix(3.3850576877593994, 0, 0, 3.3850576877593994, 82.9711685180664, 121.06657028176278)"/><g transform="matrix(1.7413401603698733, 0, 0, 1.7413401603698733, 367.7146606445313, 403.3679504394532)"><g id="surface1">
<path style="fill-opacity: 0.08;" d="M 12 2 C 12 2 3 9.109375 3 13.109375 C 3 15.777344 5.25 18 7.949219 18 C 9.28125 18 10.273438 17.390625 11 17 L 8.722656 20.554688 C 8.390625 21.21875 8.875 22 9.617188 22 L 14.382813 22 C 15.125 22 15.609375 21.21875 15.277344 20.554688 L 13 17 C 13.667969 17.351563 14.59375 18 16.050781 18 C 18.75 18 21 15.777344 21 13.109375 C 21 9.109375 12 2 12 2 Z "/>
</g></g><path fill="#938671" fill-opacity="1" stroke="#000000" stroke-opacity="1" style="color: rgb(147, 134, 113);" stroke-width="5" stroke-dasharray="none" stroke-linejoin="round" stroke-linecap="butt" stroke-dashoffset="" fill-rule="nonzero" opacity="1" marker-start="" marker-mid="" marker-end="" d="M166.88375854492188,220.79693603515625 C183.53512573242188,218.86798095703125 241.83883666992188,244.82220458984375 245.11477661132812,293.8161315917969 C220.43679809570312,297.223876953125 176.84658813476562,262.171630859375 167.62503051757812,236.35287475585938 C162.19204711914062,273.142578125 107.87216186523438,293.63568115234375 99.47708129882812,293.3893127441406 C95.52682495117188,256.845703125 136.02059936523438,224.00643920898438 166.88375854492188,220.79693603515625 z" class="" id="svg_26" transform="matrix(3.3850576877593994, 0, 0, 3.3850576877593994, -51.32390594482422, -102.84630203269035)"/><path fill="#6d6250" fill-opacity="1" stroke="none" stroke-opacity="1" style="color: rgb(183, 142, 80);" stroke-width="5" stroke-dasharray="none" stroke-linejoin="round" stroke-linecap="butt" stroke-dashoffset="" fill-rule="nonzero" opacity="1" marker-start="" marker-mid="" marker-end="" id="svg_24" d="M165.108,235.364 C162.807,259.302 130.762,284.01 101.795,290.256 C118.33,281.791 127.942,275.378 139.092,266.4 C151.867,256.311 160.026,244.94 165.108,235.364 z" class="" transform="matrix(3.3850576877593994, 0, 0, 3.3850576877593994, -51.32390594482422, -102.84630203269035)"/><path fill="#6d6250" fill-opacity="1" stroke="none" stroke-opacity="1" style="color: rgb(183, 142, 80);" stroke-width="5" stroke-dasharray="none" stroke-linejoin="round" stroke-linecap="butt" stroke-dashoffset="" fill-rule="nonzero" opacity="1" marker-start="" marker-mid="" marker-end="" d="M228.474,235.666 C205.763,269.281 168.675,280.268 150.626,276.859 C153.234,265.951 157.833,259.401 166.221,252.043 C180.408,256.321 210.509,253.373 228.474,235.666 z" class="" id="svg_30" transform="matrix(-0.8251093626022336, -3.282957553863525, 3.282957553863525, -0.8251093626022336, -12.804050445556868, 1607.4992027280518)"/><path d="M 485.07489013671875 358.8599853515625 C 485.07489013671875 360.9599914550781 484.7515563964844 362.3999938964844 484.1048889160156 363.17999267578125 C 483.4582214355469 363.9666748046875 482.5615539550781 364.3599853515625 481.4148864746094 364.3599853515625 C 480.26824951171875 364.3599853515625 479.3915710449219 364.0400085449219 478.784912109375 363.3999938964844 C 478.17822265625 362.760009765625 477.7948913574219 361.6166687011719 477.6348876953125 359.9700012207031 L 479.3149108886719 359.7300109863281 C 479.4415588378906 360.92999267578125 479.6582336425781 361.739990234375 479.96490478515625 362.1600036621094 C 480.264892578125 362.586669921875 480.71490478515625 362.79998779296875 481.3149108886719 362.79998779296875 C 481.9148864746094 362.79998779296875 482.3815612792969 362.5466613769531 482.71490478515625 362.0400085449219 C 483.04156494140625 361.5400085449219 483.20489501953125 360.6166687011719 483.20489501953125 359.2699890136719 L 483.20489501953125 356.1499938964844 C 482.67822265625 356.74334716796875 481.92156982421875 357.0400085449219 480.9349060058594 357.0400085449219 C 479.9482421875 357.0400085449219 479.1415710449219 356.67333984375 478.514892578125 355.94000244140625 C 477.8815612792969 355.20001220703125 477.5649108886719 353.8666687011719 477.5649108886719 351.94000244140625 C 477.5649108886719 350.0133361816406 477.8948974609375 348.67999267578125 478.5549011230469 347.94000244140625 C 479.2215576171875 347.2066650390625 480.1549072265625 346.8399963378906 481.3548889160156 346.8399963378906 C 482.5549011230469 346.8399963378906 483.47491455078125 347.2066650390625 484.1148986816406 347.94000244140625 C 484.7549133300781 348.67999267578125 485.07489013671875 350.02667236328125 485.07489013671875 351.9800109863281 L 485.07489013671875 358.8599853515625 M 479.3848876953125 351.6400146484375 L 479.3848876953125 352.239990234375 C 479.3848876953125 354.4466552734375 480.02490234375 355.54998779296875 481.3049011230469 355.54998779296875 C 481.8848876953125 355.54998779296875 482.341552734375 355.3233337402344 482.6748962402344 354.8699951171875 C 483.00823974609375 354.4100036621094 483.1849060058594 353.5966796875 483.20489501953125 352.42999267578125 L 483.20489501953125 351.6400146484375 C 483.20489501953125 349.4333190917969 482.5682373046875 348.3299865722656 481.2948913574219 348.3299865722656 C 480.0215759277344 348.3299865722656 479.3848876953125 349.4333190917969 479.3848876953125 351.6400146484375 Z" transform="matrix(2.096853733062744, 0, 0, 2.096853733062744, -621.728271484375, -320.5625)" style="fill: rgb(51, 51, 51); white-space: pre; color: rgb(51, 51, 51); stroke: rgb(0, 0, 0); paint-order: stroke; stroke-width: 2; stroke-opacity: 1;"/><path d="M 397.8834533691406 438.2238464355469" style="fill: rgb(0, 0, 0); fill-opacity: 1; stroke: rgb(0, 0, 0); stroke-opacity: 1; stroke-width: 1; paint-order: fill;" transform="matrix(1, 0, 0, 1, -2.894761085510254, -12.564439058523476)"/><path d="M 380.876708984375 451.6120910644531" style="fill: rgb(0, 0, 0); fill-opacity: 1; stroke: rgb(0, 0, 0); stroke-opacity: 1; stroke-width: 1; paint-order: fill;" transform="matrix(1, 0, 0, 1, -2.894761085510254, -12.564439058523476)"/><g transform="matrix(1.7413401603698733, 0, 0, 1.7413401603698733, 640.5157470703124, 405.81909179687506)"><g id="g-1">
<path style="stroke: rgb(0, 0, 0); fill: rgb(51, 51, 51); stroke-width: 1;" d="M 12 2 C 12 2 3 9.109375 3 13.109375 C 3 15.777344 5.25 18 7.949219 18 C 9.28125 18 10.273438 17.390625 11 17 L 8.722656 20.554688 C 8.390625 21.21875 8.875 22 9.617188 22 L 14.382813 22 C 15.125 22 15.609375 21.21875 15.277344 20.554688 L 13 17 C 13.667969 17.351563 14.59375 18 16.050781 18 C 18.75 18 21 15.777344 21 13.109375 C 21 9.109375 12 2 12 2 Z "/>
</g></g><path d="M 309.97418212890625 325.5692443847656" style="fill: rgb(219, 164, 76); fill-opacity: 1; stroke: rgb(0, 0, 0); stroke-opacity: 1; stroke-width: 0; paint-order: fill;" transform="matrix(1, 0, 0, 1, 352.88068854003785, 59.68605117739515)"/><path d="M 111.846153 120.153847 H 150.076927 V 148.230768 H 111.846153 V 120.153847 Z" fill="#ffbf51" stroke="none" stroke-width="5" stroke-dashoffset="" fill-rule="nonzero" id="svg_8" style="color: rgb(0, 0, 0);" class="" fill-opacity="1" transform="matrix(3.3850576877593994, 0, 0, 3.3850576877593994, -51.32390594482422, -102.84630203269035)"/><path fill="#6d6d6d" fill-opacity="1" stroke="#000000" stroke-opacity="1" stroke-width="5" stroke-dasharray="none" stroke-linejoin="miter" stroke-linecap="butt" stroke-dashoffset="" fill-rule="nonzero" opacity="1" marker-start="" marker-mid="" marker-end="" d="M98.10256144092864,148.80769541842002L158.8717944391616,148.80769541842002" id="svg_23" class="" transform="matrix(3.3850576877593994, 0, 0, 3.3850576877593994, -51.32390594482422, -102.84630203269035)"/><path fill="#ffbf51" fill-opacity="1" stroke="none" stroke-opacity="1" stroke-width="5" stroke-dasharray="none" stroke-linejoin="miter" stroke-linecap="butt" stroke-dashoffset="" fill-rule="nonzero" opacity="1" marker-start="" marker-mid="" marker-end="" id="svg_64" d="M 173.83331 143.80997 C 211.19318 107.20862 226.48085021972656 121.59916687011719 232.19271041503907 134.2216640185547 C 238.71295041503907 138.9785440185547 252.59252489746095 138.22668310302734 247.11276489746095 125.48356310302734 C 240.8574981689453 99.60847473144531 204.64894104003906 86.8629150390625 172.69611783691406 96.53974914550781 C 161.68623502440494 99.87406651690978 173.83331 143.80997 173.83331 143.80997 Z" style="color: rgb(0, 0, 0);" class="" transform="matrix(3.3850576877593994, 0, 0, 3.3850576877593994, -51.32390594482422, -102.84630203269035)"/><path fill="#6d6d6d" fill-opacity="1" stroke="#000000" stroke-opacity="1" stroke-width="5" stroke-dasharray="none" stroke-linejoin="miter" stroke-linecap="butt" stroke-dashoffset="" fill-rule="nonzero" opacity="1" marker-start="" marker-mid="" marker-end="" id="path-1" class="" transform="matrix(2.9846360683441158, 0, 0, 2.9846360683441158, 282.6941528320312, -69.7614288330078)" d="M 97.14965769337005 143.56671336275596 C 97.14965769337005 143.56671336275596 105.26211547851562 127.12471771240234 127.52412414550781 127.12910461425781 C 149.86224366146314 127.1335065143477 156.2512969970703 144.28140258789062 156.2512969970703 144.28140258789062" style="fill-opacity: 0;"/><path style="fill: rgb(109, 109, 109); fill-opacity: 0; stroke: rgb(0, 0, 0); stroke-opacity: 1; stroke-width: 5; paint-order: fill;"/><path style="fill: rgb(255, 191, 81); fill-opacity: 1; stroke: rgb(0, 0, 0); stroke-opacity: 1; stroke-width: 0; paint-order: fill;"/><path style="fill: rgb(255, 191, 81); fill-opacity: 1; stroke: rgb(0, 0, 0); stroke-opacity: 1; stroke-width: 0; paint-order: fill;"/><path style="fill: rgb(255, 191, 81); fill-opacity: 1; stroke: rgb(0, 0, 0); stroke-opacity: 1; stroke-width: 0; paint-order: fill;"/><path style="fill: rgb(255, 191, 81); fill-opacity: 1; stroke: rgb(0, 0, 0); stroke-opacity: 1; stroke-width: 0; paint-order: fill;"/><path style="fill: rgb(255, 191, 81); fill-opacity: 1; stroke: rgb(0, 0, 0); stroke-opacity: 1; stroke-width: 0; paint-order: fill;"/><path d="M 528.5914916992188 624.9840698242188 L 442.3251953125 583.726318359375 L 526.716064453125 583.726318359375 L 526.7161254882812 405.56768798828125 L 599.8549194335938 589.3523864746094 C 599.8549194335938 589.3523864746094 526.7161254882812 626.8594360351562 528.5914916992188 624.9840698242188 Z" style="fill: rgb(219, 164, 76); fill-opacity: 1; stroke: rgb(0, 0, 0); stroke-opacity: 1; stroke-width: 16; paint-order: fill;"/><g transform="matrix(0.6701047943787489, 0, 0, 0.6701047943787489, 498.1717284369579, 451.75195867330683)"><g id="g-2" transform="matrix(1, 0, 0, 1, 0, 0)">
	<g id="g-3">
		<path class="st0" d="M 52.40280532836914 -99.32565689086914 L 174.79156494140625 182.58316040039062 L 60.79859924316406 232.95791625976562 L 52.40280532836914 -99.32565689086914 Z" style="fill: rgb(219, 164, 76);"/>
	</g>
</g></g></svg>